<svg preserveAspectRatio="none" overflow="visible" style="display: block;" width="16" height="16" viewBox="0 0 16 16" fill="none" xmlns="http://www.w3.org/2000/svg">
<g id="search">
<path id="Vector" fill-rule="evenodd" clip-rule="evenodd" d="M6.66667 2.66667C4.45753 2.66667 2.66667 4.45753 2.66667 6.66667C2.66667 8.87581 4.45753 10.6667 6.66667 10.6667C8.87581 10.6667 10.6667 8.87581 10.6667 6.66667C10.6667 4.45753 8.87581 2.66667 6.66667 2.66667ZM1.33333 6.66667C1.33333 3.72115 3.72115 1.33333 6.66667 1.33333C9.61218 1.33333 12 3.72115 12 6.66667C12 9.61218 9.61218 12 6.66667 12C3.72115 12 1.33333 9.61218 1.33333 6.66667ZM11.1953 11.1953C11.4556 10.9349 11.8777 10.9349 12.1381 11.1953L14.4714 13.5286C14.7318 13.7889 14.7318 14.2111 14.4714 14.4714C14.2111 14.7318 13.7889 14.7318 13.5286 14.4714L11.1953 12.1381C10.9349 11.8777 10.9349 11.4556 11.1953 11.1953Z" fill="#62748E"/>
</g>
</svg>
