<svg preserveAspectRatio="none" overflow="visible" style="display: block;" width="20" height="20" viewBox="0 0 20 20" fill="none" xmlns="http://www.w3.org/2000/svg">
<g id="user-headset">
<path id="Vector" fill-rule="evenodd" clip-rule="evenodd" d="M5.87521 3.37521C6.96917 2.28125 8.4529 1.66667 10 1.66667C11.5471 1.66667 13.0308 2.28125 14.1248 3.37521C15.2188 4.46917 15.8333 5.9529 15.8333 7.5C16.4964 7.5 17.1323 7.76339 17.6011 8.23223C18.0699 8.70107 18.3333 9.33696 18.3333 10V11.6667C18.3333 12.3297 18.0699 12.9656 17.6011 13.4344C17.1323 13.9033 16.4964 14.1667 15.8333 14.1667H15.7614C15.7093 14.4415 15.629 14.7109 15.5214 14.9705C15.3155 15.4677 15.0137 15.9194 14.6332 16.2999C14.2527 16.6804 13.801 16.9822 13.3039 17.1881C12.8067 17.394 12.2739 17.5 11.7358 17.5H11.4437C11.1555 17.9982 10.6169 18.3333 10 18.3333H9.16667C8.24619 18.3333 7.5 17.5871 7.5 16.6667V15.8333C7.5 14.9129 8.24619 14.1667 9.16667 14.1667H10C10.9205 14.1667 11.6667 14.9129 11.6667 15.8333H11.7358C12.0551 15.8333 12.3712 15.7705 12.6661 15.6483C12.961 15.5261 13.229 15.3471 13.4547 15.1214C13.6804 14.8956 13.8595 14.6277 13.9816 14.3327C14.1038 14.0378 14.1667 13.7217 14.1667 13.4025V7.5C14.1667 6.39493 13.7277 5.33512 12.9463 4.55372C12.1649 3.77232 11.1051 3.33333 10 3.33333C8.89493 3.33333 7.83512 3.77232 7.05372 4.55372C6.27232 5.33512 5.83333 6.39493 5.83333 7.5V13.3333C5.83333 13.7936 5.46024 14.1667 5 14.1667H4.16667C3.50362 14.1667 2.86774 13.9033 2.3989 13.4344C1.93006 12.9656 1.66667 12.3297 1.66667 11.6667V10C1.66667 9.33696 1.93006 8.70107 2.3989 8.23223C2.86774 7.76339 3.50362 7.5 4.16667 7.5C4.16667 5.9529 4.78125 4.46917 5.87521 3.37521ZM15.8333 12.5C16.0543 12.5 16.2663 12.4122 16.4226 12.2559C16.5789 12.0996 16.6667 11.8877 16.6667 11.6667V10C16.6667 9.77899 16.5789 9.56703 16.4226 9.41074C16.2663 9.25446 16.0543 9.16667 15.8333 9.16667V12.5ZM9.92267 4.17004C10.3621 4.15972 10.7992 4.23639 11.2089 4.39566C11.6185 4.55493 11.9926 4.79365 12.3097 5.09807C12.6416 5.41683 12.6524 5.94436 12.3336 6.27634C12.0148 6.60832 11.4873 6.61903 11.1553 6.30026C10.9968 6.14805 10.8097 6.02869 10.6049 5.94906C10.4001 5.86943 10.1815 5.83109 9.96183 5.83625C9.74212 5.84141 9.52561 5.88998 9.32474 5.97915C9.12388 6.06831 8.94263 6.19633 8.79144 6.35582C8.4748 6.68983 7.94735 6.70391 7.61335 6.38727C7.27934 6.07064 7.26526 5.54319 7.58189 5.20918C7.88428 4.8902 8.24677 4.63417 8.6485 4.45584C9.05023 4.2775 9.48326 4.18037 9.92267 4.17004ZM4.16667 9.16667C3.94565 9.16667 3.73369 9.25446 3.57741 9.41074C3.42113 9.56702 3.33333 9.77899 3.33333 10V11.6667C3.33333 11.8877 3.42113 12.0996 3.57741 12.2559C3.73369 12.4122 3.94565 12.5 4.16667 12.5V9.16667ZM10 15.8333H9.16667V16.6667H10V15.8333Z" fill="#45556C"/>
</g>
</svg>
